<svg width="1299" height="693" viewBox="0 0 1299 693" fill="none" xmlns="http://www.w3.org/2000/svg">
<path d="M1.65625 193.991V233.772H89.0204V193.991H1.65625Z" fill="white"/>
<path d="M519.711 666.751C544.649 666.751 564.864 646.535 564.864 621.598C564.864 596.66 544.649 576.444 519.711 576.444C494.774 576.444 474.559 596.66 474.559 621.598C474.559 646.535 494.774 666.751 519.711 666.751Z" fill="white"/>
<path d="M424.806 666.751C449.743 666.751 469.959 646.535 469.959 621.598C469.959 596.66 449.743 576.444 424.806 576.444C399.868 576.444 379.652 596.66 379.652 621.598C379.652 646.535 399.868 666.751 424.806 666.751Z" fill="white"/>
<path d="M329.872 666.751C354.81 666.751 375.025 646.535 375.025 621.598C375.025 596.66 354.81 576.444 329.872 576.444C304.935 576.444 284.719 596.66 284.719 621.598C284.719 646.535 304.935 666.751 329.872 666.751Z" fill="white"/>
<path d="M234.966 666.751C259.903 666.751 280.118 646.535 280.118 621.598C280.118 596.66 259.903 576.444 234.966 576.444C210.028 576.444 189.812 596.66 189.812 621.598C189.812 646.535 210.028 666.751 234.966 666.751Z" fill="white"/>
<path d="M140.056 666.751C164.993 666.751 185.209 646.535 185.209 621.598C185.209 596.66 164.993 576.444 140.056 576.444C115.118 576.444 94.9023 596.66 94.9023 621.598C94.9023 646.535 115.118 666.751 140.056 666.751Z" fill="white"/>
<path d="M45.1532 666.751C70.0906 666.751 90.3067 646.535 90.3067 621.597C90.3067 596.66 70.0906 576.444 45.1532 576.444C20.2158 576.444 0 596.66 0 621.597C0 646.535 20.2158 666.751 45.1532 666.751Z" fill="white"/>
<path d="M519.711 524.002C544.649 524.002 564.864 503.786 564.864 478.849C564.864 453.911 544.649 433.695 519.711 433.695C494.774 433.695 474.559 453.911 474.559 478.849C474.559 503.786 494.774 524.002 519.711 524.002Z" fill="white"/>
<path d="M424.806 524.002C449.743 524.002 469.959 503.786 469.959 478.849C469.959 453.911 449.743 433.695 424.806 433.695C399.868 433.695 379.652 453.911 379.652 478.849C379.652 503.786 399.868 524.002 424.806 524.002Z" fill="white"/>
<path d="M329.872 524.002C354.81 524.002 375.025 503.786 375.025 478.849C375.025 453.911 354.81 433.695 329.872 433.695C304.935 433.695 284.719 453.911 284.719 478.849C284.719 503.786 304.935 524.002 329.872 524.002Z" fill="white"/>
<path d="M234.966 524.002C259.903 524.002 280.118 503.786 280.118 478.849C280.118 453.911 259.903 433.695 234.966 433.695C210.028 433.695 189.812 453.911 189.812 478.849C189.812 503.786 210.028 524.002 234.966 524.002Z" fill="white"/>
<path d="M140.056 524.002C164.993 524.002 185.209 503.786 185.209 478.849C185.209 453.911 164.993 433.695 140.056 433.695C115.118 433.695 94.9023 453.911 94.9023 478.849C94.9023 503.786 115.118 524.002 140.056 524.002Z" fill="white"/>
<path d="M45.1532 524.002C70.0906 524.002 90.3067 503.786 90.3067 478.849C90.3067 453.911 70.0906 433.695 45.1532 433.695C20.2158 433.695 0 453.911 0 478.849C0 503.786 20.2158 524.002 45.1532 524.002Z" fill="white"/>
<path d="M45.1532 427.172C70.0906 427.172 90.3067 406.956 90.3067 382.019C90.3067 357.081 70.0906 336.865 45.1532 336.865C20.2158 336.865 0 357.081 0 382.019C0 406.956 20.2158 427.172 45.1532 427.172Z" fill="white"/>
<path d="M45.1532 330.478C70.0906 330.478 90.3067 310.262 90.3067 285.325C90.3067 260.388 70.0906 240.172 45.1532 240.172C20.2158 240.172 0 260.388 0 285.325C0 310.262 20.2158 330.478 45.1532 330.478Z" fill="white"/>
<path d="M45.1532 187.721C70.0906 187.721 90.3067 167.505 90.3067 142.567C90.3067 117.63 70.0906 97.4141 45.1532 97.4141C20.2158 97.4141 0 117.63 0 142.567C0 167.505 20.2158 187.721 45.1532 187.721Z" fill="white"/>
<path d="M45.1532 91.0196C70.0906 91.0196 90.3067 70.8035 90.3067 45.8661C90.3067 20.9287 70.0906 0.712891 45.1532 0.712891C20.2158 0.712891 0 20.9287 0 45.8661C0 70.8035 20.2158 91.0196 45.1532 91.0196Z" fill="white"/>
<path d="M286.277 51.2354V91.0162H373.641V51.2354H286.277Z" fill="white"/>
<path d="M286.277 97.4141V137.195H373.641V97.4141H286.277Z" fill="white"/>
<path d="M329.997 427.172C354.935 427.172 375.15 406.956 375.15 382.019C375.15 357.081 354.935 336.865 329.997 336.865C305.06 336.865 284.844 357.081 284.844 382.019C284.844 406.956 305.06 427.172 329.997 427.172Z" fill="white"/>
<path d="M329.997 330.478C354.935 330.478 375.15 310.262 375.15 285.325C375.15 260.388 354.935 240.172 329.997 240.172C305.06 240.172 284.844 260.388 284.844 285.325C284.844 310.262 305.06 330.478 329.997 330.478Z" fill="white"/>
<path d="M329.997 233.775C354.935 233.775 375.15 213.56 375.15 188.622C375.15 163.685 354.935 143.469 329.997 143.469C305.06 143.469 284.844 163.685 284.844 188.622C284.844 213.56 305.06 233.775 329.997 233.775Z" fill="white"/>
<path d="M191.215 290.686V330.467H278.58V290.686H191.215Z" fill="white"/>
<path d="M191.371 51.2354V91.0162H278.735V51.2354H191.371Z" fill="white"/>
<path d="M236.142 427.172C261.079 427.172 281.294 406.956 281.294 382.019C281.294 357.081 261.079 336.865 236.142 336.865C211.204 336.865 190.988 357.081 190.988 382.019C190.988 406.956 211.204 427.172 236.142 427.172Z" fill="white"/>
<path d="M234.966 284.416C259.903 284.416 280.118 264.2 280.118 239.263C280.118 214.325 259.903 194.109 234.966 194.109C210.028 194.109 189.812 214.325 189.812 239.263C189.812 264.2 210.028 284.416 234.966 284.416Z" fill="white"/>
<path d="M234.966 187.594C259.903 187.594 280.118 167.378 280.118 142.44C280.118 117.503 259.903 97.2871 234.966 97.2871C210.028 97.2871 189.812 117.503 189.812 142.44C189.812 167.378 210.028 187.594 234.966 187.594Z" fill="white"/>
<path d="M96.4336 387.396V427.176H183.798V387.396H96.4336Z" fill="white"/>
<path d="M96.3398 341.343V381.124H183.704V341.343H96.3398Z" fill="white"/>
<path d="M97.5781 101.892V141.673H184.943V101.892H97.5781Z" fill="white"/>
<path d="M139.935 335.074C164.872 335.074 185.088 314.858 185.088 289.921C185.088 264.983 164.872 244.768 139.935 244.768C114.997 244.768 94.7812 264.983 94.7812 289.921C94.7812 314.858 114.997 335.074 139.935 335.074Z" fill="white"/>
<path d="M139.935 238.371C164.872 238.371 185.088 218.155 185.088 193.218C185.088 168.28 164.872 148.064 139.935 148.064C114.997 148.064 94.7812 168.28 94.7812 193.218C94.7812 218.155 114.997 238.371 139.935 238.371Z" fill="white"/>
<path d="M381.18 387.396V427.176H468.544V387.396H381.18Z" fill="white"/>
<path d="M381.18 244.641V284.421H468.544V244.641H381.18Z" fill="white"/>
<path d="M424.806 381.126C449.743 381.126 469.959 360.91 469.959 335.973C469.959 311.035 449.743 290.82 424.806 290.82C399.868 290.82 379.652 311.035 379.652 335.973C379.652 360.91 399.868 381.126 424.806 381.126Z" fill="white"/>
<path d="M424.806 238.371C449.743 238.371 469.959 218.155 469.959 193.218C469.959 168.28 449.743 148.064 424.806 148.064C399.868 148.064 379.652 168.28 379.652 193.218C379.652 218.155 399.868 238.371 424.806 238.371Z" fill="white"/>
<path d="M424.806 141.67C449.743 141.67 469.959 121.454 469.959 96.5166C469.959 71.5791 449.743 51.3633 424.806 51.3633C399.868 51.3633 379.652 71.5791 379.652 96.5166C379.652 121.454 399.868 141.67 424.806 141.67Z" fill="white"/>
<path d="M476.086 0.712891V40.4937H563.451V0.712891H476.086Z" fill="white"/>
<path d="M519.711 427.172C544.649 427.172 564.864 406.956 564.864 382.019C564.864 357.081 544.649 336.865 519.711 336.865C494.774 336.865 474.559 357.081 474.559 382.019C474.559 406.956 494.774 427.172 519.711 427.172Z" fill="white"/>
<path d="M519.711 330.725C544.649 330.725 564.864 310.509 564.864 285.571C564.864 260.634 544.649 240.418 519.711 240.418C494.774 240.418 474.559 260.634 474.559 285.571C474.559 310.509 494.774 330.725 519.711 330.725Z" fill="white"/>
<path d="M519.711 137.192C544.649 137.192 564.864 116.977 564.864 92.0391C564.864 67.1015 544.649 46.8857 519.711 46.8857C494.774 46.8857 474.559 67.1015 474.559 92.0391C474.559 116.977 494.774 137.192 519.711 137.192Z" fill="white"/>
<path d="M519.711 234.028C544.649 234.028 564.864 213.812 564.864 188.874C564.864 163.938 544.649 143.722 519.711 143.722C494.774 143.722 474.559 163.938 474.559 188.874C474.559 213.812 494.774 234.028 519.711 234.028Z" fill="white"/>
<path d="M563.451 530.271H476.086V570.052H563.451V530.271Z" fill="white"/>
<path d="M468.544 530.271H381.18V570.052H468.544V530.271Z" fill="white"/>
<path d="M373.641 530.271H286.277V570.052H373.641V530.271Z" fill="white"/>
<path d="M278.735 530.271H191.371V570.052H278.735V530.271Z" fill="white"/>
<path d="M183.704 530.271H96.3398V570.052H183.704V530.271Z" fill="white"/>
<path d="M88.8917 530.271H1.52734V570.052H88.8917V530.271Z" fill="white"/>
<path d="M666.437 395.187C657.611 395.187 650.449 391.989 644.948 385.721C639.576 379.454 636.762 370.628 636.762 359.243C636.762 351.824 638.169 345.301 641.11 339.929C644.053 334.557 647.762 330.463 652.495 327.521C657.228 324.58 662.216 323.173 667.46 323.173C671.426 323.173 675.007 323.94 678.206 325.474C681.275 327.01 684.345 329.056 687.159 331.742H687.543L686.904 319.591V294.008H700.846V393.396H689.462L688.311 384.954H687.926C685.24 387.641 682.043 390.071 678.206 391.989C674.496 394.036 670.531 395.06 666.437 395.06V395.187ZM669.635 383.675C675.775 383.675 681.531 380.605 686.904 374.465V341.976C684.217 339.418 681.531 337.499 678.717 336.475C676.031 335.452 673.345 334.94 670.531 334.94C666.949 334.94 663.751 335.964 660.809 337.882C657.868 339.801 655.565 342.615 653.774 346.325C651.983 350.034 651.088 354.255 651.088 359.243C651.088 367.046 652.75 373.186 655.948 377.408C659.274 381.628 663.751 383.803 669.507 383.803L669.635 383.675Z" fill="white"/>
<path d="M744.563 393.4V336.095H713.863V324.839H758.505V393.4H744.563ZM750.318 311.536C747.377 311.536 744.946 310.64 742.899 308.85C740.853 307.059 739.83 304.629 739.83 301.686C739.83 298.745 740.853 296.314 742.899 294.524C744.946 292.733 747.377 291.837 750.318 291.837C753.261 291.837 755.819 292.733 757.738 294.524C759.657 296.314 760.679 298.745 760.679 301.686C760.679 304.629 759.657 307.059 757.738 308.85C755.819 310.64 753.261 311.536 750.318 311.536Z" fill="white"/>
<path d="M808.271 424.487C798.55 424.487 790.875 422.824 785.247 419.627C779.619 416.428 776.805 411.823 776.805 405.812C776.805 399.8 780.514 395.067 787.933 390.974V390.462C786.143 389.439 784.479 388.031 783.072 386.241C781.665 384.451 780.899 382.02 780.899 379.205C780.899 376.904 781.665 374.729 783.072 372.426C784.479 370.124 786.526 368.078 789.084 366.286V365.775C786.782 363.984 784.736 361.554 783.072 358.612C781.41 355.67 780.514 352.088 780.514 348.123C780.514 343.007 781.793 338.529 784.352 334.948C786.91 331.366 790.236 328.424 794.457 326.506C798.678 324.459 803.283 323.436 808.143 323.436C811.981 323.436 815.437 323.948 818.507 325.099H846.645V336.099H830.019C831.298 337.634 832.446 339.425 833.472 341.6C834.498 343.774 835.002 346.076 835.002 348.507C835.002 353.495 833.854 357.716 831.42 361.17C828.994 364.624 825.794 367.31 821.698 369.1C817.611 370.892 813.132 371.787 808.016 371.787C806.353 371.787 804.562 371.659 802.643 371.275C800.724 370.892 798.806 370.38 797.015 369.613C793.817 371.659 792.283 374.089 792.283 376.776C792.283 381.508 796.759 383.938 805.841 383.938H820.42C829.246 383.938 836.028 385.218 840.376 387.776C844.854 390.334 847.028 394.556 847.028 400.311C847.028 404.661 845.497 408.754 842.298 412.463C839.098 416.173 834.62 419.115 828.863 421.289C823.107 423.464 816.202 424.614 808.271 424.614V424.487ZM809.678 414.766C816.968 414.766 822.724 413.487 827.072 411.056C831.42 408.626 833.472 405.812 833.472 402.614C833.472 399.672 832.193 397.625 829.759 396.602C827.333 395.578 823.62 395.067 818.759 395.067H806.609C804.562 395.067 802.643 395.067 800.98 394.811C799.19 394.683 797.655 394.299 796.248 393.916C793.305 395.45 791.259 397.114 790.108 398.904C788.957 400.696 788.317 402.358 788.317 404.149C788.317 407.475 790.108 410.033 793.817 411.951C797.527 413.87 802.643 414.766 809.55 414.766H809.678ZM808.143 362.705C812.109 362.705 815.437 361.426 818.246 358.74C821.063 356.054 822.472 352.472 822.472 347.868C822.472 343.262 821.063 339.809 818.246 337.123C815.437 334.436 812.109 333.029 808.143 333.029C804.178 333.029 800.852 334.436 798.038 337.123C795.224 339.809 793.817 343.39 793.817 347.868C793.817 352.344 795.224 356.054 798.038 358.74C800.852 361.426 804.306 362.705 808.143 362.705Z" fill="white"/>
<path d="M884.887 393.4V336.095H854.184V324.839H898.826V393.4H884.887ZM890.644 311.536C887.696 311.536 885.27 310.64 883.218 308.85C881.174 307.059 880.149 304.629 880.149 301.686C880.149 298.745 881.174 296.314 883.218 294.524C885.27 292.733 887.696 291.837 890.644 291.837C893.583 291.837 896.14 292.733 898.061 294.524C899.974 296.314 901 298.745 901 301.686C901 304.629 899.974 307.059 898.061 308.85C896.14 310.64 893.583 311.536 890.644 311.536Z" fill="white"/>
<path d="M961.77 395.199C954.996 395.199 949.752 393.92 945.657 391.489C941.691 389.059 938.874 385.733 937.083 381.384C935.292 377.035 934.527 372.046 934.527 366.418V336.103H915.727V325.614L935.04 324.974L936.831 303.229H948.344V324.974H980.708V336.231H948.344V366.546C948.344 372.43 949.492 376.779 951.926 379.722C954.352 382.663 958.578 384.07 964.839 384.07C967.787 384.07 970.596 383.815 973.161 383.302C975.717 382.791 978.143 382.023 980.578 381.129L983.387 391.361C980.317 392.385 976.995 393.28 973.543 394.047C970.091 394.815 966.126 395.199 961.648 395.199H961.77Z" fill="white"/>
<path d="M1017.79 395.195C1011.26 395.195 1005.76 393.404 1001.28 389.823C996.807 386.241 994.633 381.38 994.633 375.496C994.633 367.693 998.346 361.81 1005.89 357.845C1013.43 353.879 1025.72 351.193 1042.99 349.913C1042.86 345.693 1041.45 342.111 1038.89 339.169C1036.34 336.227 1031.98 334.692 1025.97 334.692C1021.75 334.692 1017.66 335.46 1013.69 337.122C1009.73 338.657 1006.02 340.448 1002.69 342.494L997.45 333.157C1001.28 330.855 1005.89 328.68 1011.26 326.506C1016.63 324.459 1022.26 323.436 1028.28 323.436C1037.74 323.436 1044.9 325.994 1049.63 331.11C1054.49 336.227 1056.8 343.39 1056.8 352.472V393.66H1045.41L1044.27 384.834H1043.88C1040.17 387.648 1036.08 390.078 1031.6 392.253C1027 394.299 1022.39 395.45 1017.66 395.45L1017.79 395.195ZM1021.75 384.066C1025.46 384.066 1029.04 383.299 1032.49 381.636C1036.08 380.101 1039.53 377.798 1042.99 374.857V358.612C1034.03 359.252 1027 360.274 1022.01 361.81C1017.02 363.217 1013.43 365.007 1011.26 367.054C1009.22 369.1 1008.07 371.531 1008.07 374.345C1008.07 377.798 1009.35 380.229 1012.03 381.764C1014.72 383.299 1017.91 384.066 1021.62 384.066H1021.75Z" fill="white"/>
<path d="M1106.33 395.187C1098.65 395.187 1092.77 393.013 1088.81 388.536C1084.84 384.059 1082.79 377.791 1082.79 369.476V305.136H1059.26V294.008H1096.74V370.244C1096.74 374.977 1097.89 378.431 1100.44 380.605C1102.88 382.652 1105.95 383.803 1109.66 383.803C1113.37 383.803 1117.46 382.78 1121.94 380.861L1125.26 391.222C1121.94 392.501 1118.99 393.396 1116.18 394.036C1113.37 394.675 1110.17 395.06 1106.33 395.06V395.187Z" fill="white"/>
<path d="M649.044 557.388C645.591 557.388 642.392 556.876 639.706 555.981L642.52 545.236C643.416 545.492 644.311 545.747 645.334 545.876C646.357 546.004 647.381 546.132 648.404 546.132C653.01 546.132 656.718 544.853 659.533 542.294C662.347 539.736 664.522 536.666 666.056 532.956L667.847 528.224L636.637 460.046H650.579L666.056 495.862C667.336 498.931 668.615 502.257 670.022 505.711C671.301 509.164 672.708 512.618 674.115 515.944H674.627C675.778 512.618 676.928 509.293 678.08 505.839C679.231 502.385 680.51 499.059 681.534 495.862L695.093 460.046H708.267L678.975 532.956C676.289 540.247 672.58 546.132 667.975 550.608C663.37 555.085 657.103 557.388 649.044 557.388Z" fill="white"/>
<path d="M746.898 530.271C740.886 530.271 735.386 528.864 730.141 526.05C724.897 523.236 720.803 519.143 717.478 513.77C714.28 508.398 712.617 501.875 712.617 494.328C712.617 486.781 714.28 480.13 717.478 474.884C720.675 469.512 724.897 465.419 730.141 462.605C735.386 459.792 740.886 458.384 746.898 458.384C752.91 458.384 758.41 459.792 763.654 462.605C768.899 465.419 772.992 469.512 776.317 474.884C779.515 480.257 781.178 486.653 781.178 494.328C781.178 502.002 779.515 508.398 776.317 513.77C773.12 519.143 768.899 523.236 763.654 526.05C758.41 528.864 752.91 530.271 746.898 530.271ZM746.898 518.887C753.038 518.887 757.771 516.585 761.352 512.107C764.933 507.63 766.724 501.747 766.724 494.328C766.724 486.909 764.933 481.024 761.352 476.548C757.771 472.071 752.91 469.768 746.898 469.768C740.886 469.768 736.025 472.071 732.444 476.548C728.862 481.024 727.071 487.036 727.071 494.328C727.071 501.619 728.862 507.63 732.444 512.107C736.025 516.585 740.886 518.887 746.898 518.887Z" fill="white"/>
<path d="M815.576 530.27C807.517 530.27 801.633 527.84 797.796 523.107C793.958 518.375 792.168 511.467 792.168 502.513V460.046H806.11V500.723C806.11 506.734 807.262 511.211 809.436 514.025C811.61 516.968 815.324 518.375 820.437 518.375C824.02 518.375 827.219 517.479 830.159 515.689C833.098 513.897 836.298 510.956 839.62 506.99V460.046H853.567V528.608H842.185L841.028 517.223H840.515C837.193 521.061 833.481 524.13 829.516 526.561C825.55 528.991 820.95 530.27 815.707 530.27H815.576Z" fill="white"/>
<path d="M907.934 530.274C901.152 530.274 895.908 528.995 891.821 526.564C887.856 524.134 885.039 520.809 883.247 516.459C881.456 512.111 880.691 507.122 880.691 501.493V471.178H861.883V460.69L881.204 460.05L882.995 438.305H894.508V460.05H926.864V471.306H894.508V501.621C894.508 507.506 895.656 511.855 898.082 514.797C900.517 517.738 904.734 519.145 911.004 519.145C913.951 519.145 916.76 518.89 919.317 518.378C921.881 517.866 924.308 517.099 926.742 516.204L929.551 526.437C926.482 527.46 923.16 528.356 919.699 529.123C916.247 529.89 912.282 530.274 907.804 530.274H907.934Z" fill="white"/>
<path d="M939.775 528.613V429.225H953.714V455.575L952.818 471.052H953.209C956.531 467.47 960.114 464.529 964.209 462.098C968.174 459.668 972.905 458.389 978.148 458.389C986.209 458.389 992.087 460.819 995.8 465.552C999.513 470.413 1001.43 477.192 1001.43 486.146V528.613H987.487V487.937C987.487 481.925 986.461 477.575 984.287 474.634C982.113 471.82 978.401 470.413 973.157 470.413C969.453 470.413 966.253 471.308 963.313 473.099C960.366 474.889 957.174 477.703 953.592 481.285V528.485H939.645L939.775 528.613Z" fill="white"/>
<path d="M1077.64 528.612V516.844H1100.04V448.539H1077.64V436.771H1136.49V448.539H1114.1V516.844H1136.49V528.612H1077.64Z" fill="white"/>
<path d="M1187.94 530.27C1180.39 530.27 1173.48 528.479 1167.35 524.77C1161.21 521.06 1156.35 515.688 1152.63 508.525C1148.93 501.362 1147.14 492.919 1147.14 482.814C1147.14 472.709 1148.93 464.267 1152.5 457.104C1156.08 449.94 1161.08 444.568 1167.35 440.731C1173.61 436.894 1180.77 434.975 1188.83 434.975C1194.46 434.975 1199.45 436.126 1203.8 438.428C1208.15 440.731 1211.73 443.417 1214.54 446.359L1206.74 455.185C1204.44 452.754 1201.75 450.836 1198.94 449.301C1196 447.894 1192.67 447.127 1188.83 447.127C1180.65 447.127 1174 450.325 1169.01 456.593C1164.02 462.859 1161.46 471.43 1161.46 482.303C1161.46 493.176 1164.02 502.002 1169.01 508.397C1174 514.793 1180.77 517.99 1189.09 517.99C1193.06 517.99 1196.76 517.095 1199.83 515.432C1203.03 513.769 1205.97 511.339 1208.66 508.269L1216.47 516.839C1212.75 521.188 1208.66 524.386 1203.8 526.688C1199.07 528.991 1193.56 530.142 1187.55 530.142L1187.94 530.27Z" fill="white"/>
<path d="M1255.21 528.612V448.539H1225.66V436.771H1298.83V448.539H1269.28V528.612H1255.21Z" fill="white"/>
<path d="M660.808 665.473C654.285 665.473 648.784 663.683 644.308 660.101C639.83 656.519 637.656 651.658 637.656 645.775C637.656 637.972 641.365 632.088 648.912 628.122C656.459 624.157 668.739 621.471 686.007 620.192C685.879 615.971 684.472 612.389 681.914 609.448C679.356 606.505 675.006 604.97 668.994 604.97C664.773 604.97 660.68 605.738 656.715 607.401C652.75 608.935 649.04 610.727 645.714 612.773L640.47 603.435C644.308 601.133 648.913 598.958 654.285 596.784C659.657 594.737 665.285 593.714 671.297 593.714C680.763 593.714 687.925 596.272 692.658 601.389C697.519 606.505 699.822 613.668 699.822 622.75V663.938H688.437L687.286 655.112H686.903C683.193 657.926 679.099 660.357 674.623 662.531C670.018 664.577 665.413 665.729 660.68 665.729L660.808 665.473ZM664.773 654.344C668.483 654.344 672.065 653.577 675.518 651.914C679.099 650.379 682.553 648.077 686.007 645.135V628.89C677.053 629.53 670.018 630.553 665.029 632.088C660.04 633.495 656.459 635.286 654.285 637.332C652.238 639.379 651.087 641.809 651.087 644.624C651.087 648.077 652.366 650.507 655.052 652.042C657.738 653.577 660.936 654.344 664.646 654.344H664.773Z" fill="white"/>
<path d="M749.816 665.474C742.653 665.474 736.257 664.067 730.63 661.253C724.873 658.439 720.397 654.345 717.071 648.973C713.745 643.601 712.082 637.078 712.082 629.531C712.082 621.984 713.873 615.332 717.454 610.088C721.036 604.715 725.641 600.622 731.525 597.808C737.409 594.994 743.804 593.587 750.712 593.587C756.34 593.587 761.201 594.61 765.421 596.401C769.643 598.32 773.097 600.622 775.911 603.309L769.131 612.134C766.445 609.832 763.631 608.169 760.689 606.89C757.747 605.611 754.677 604.971 751.351 604.971C743.932 604.971 737.921 607.274 733.316 611.751C728.711 616.228 726.408 622.24 726.408 629.531C726.408 636.821 728.711 642.833 733.188 647.311C737.664 651.787 743.676 654.09 750.968 654.09C755.061 654.09 758.77 653.322 762.224 651.659C765.55 650.124 768.62 648.205 771.306 645.904L777.318 654.857C773.48 658.183 769.131 660.869 764.399 662.66C759.666 664.45 754.805 665.346 749.816 665.346V665.474Z" fill="white"/>
<path d="M809.816 665.473C803.293 665.473 797.793 663.683 793.315 660.101C788.839 656.519 786.664 651.658 786.664 645.775C786.664 637.972 790.374 632.088 797.92 628.122C805.467 624.157 817.749 621.471 835.018 620.192C834.888 615.971 833.479 612.389 830.923 609.448C828.366 606.505 824.018 604.97 818.001 604.97C813.781 604.97 809.688 605.738 805.723 607.401C801.758 608.935 798.048 610.727 794.722 612.773L789.478 603.435C793.315 601.133 797.92 598.958 803.293 596.784C808.665 594.737 814.297 593.714 820.305 593.714C829.775 593.714 836.931 596.272 841.67 601.389C846.531 606.505 848.827 613.668 848.827 622.75V663.938H837.444L836.296 655.112H835.914C832.201 657.926 828.105 660.357 823.627 662.531C819.027 664.577 814.419 665.729 809.688 665.729L809.816 665.473ZM813.781 654.344C817.488 654.344 821.071 653.577 824.523 651.914C828.105 650.379 831.558 648.077 835.018 645.135V628.89C826.062 629.53 819.027 630.553 814.038 632.088C809.049 633.495 805.467 635.286 803.293 637.332C801.246 639.379 800.095 641.809 800.095 644.624C800.095 648.077 801.374 650.507 804.06 652.042C806.746 653.577 809.944 654.344 813.653 654.344H813.781Z" fill="white"/>
<path d="M890.537 665.473C881.711 665.473 874.554 662.274 869.05 656.007C863.676 649.739 860.867 640.913 860.867 629.529C860.867 622.11 862.268 615.586 865.215 610.214C868.154 604.842 871.867 600.748 876.598 597.806C881.328 594.865 886.319 593.458 891.563 593.458C895.528 593.458 899.11 594.225 902.31 595.76C905.38 597.295 908.449 599.341 911.258 602.027H911.641L911.006 589.876V564.293H924.945V663.681H913.562L912.414 655.24H912.032C909.345 657.926 906.145 660.356 902.31 662.274C898.597 664.321 894.632 665.345 890.537 665.345V665.473ZM893.737 653.96C899.876 653.96 905.632 650.89 911.006 644.75V612.26C908.319 609.702 905.632 607.784 902.815 606.76C900.136 605.737 897.449 605.225 894.632 605.225C891.05 605.225 887.85 606.249 884.911 608.167C881.971 610.086 879.667 612.9 877.876 616.61C876.085 620.319 875.189 624.54 875.189 629.529C875.189 637.331 876.85 643.471 880.05 647.693C883.38 651.914 887.85 654.088 893.606 654.088L893.737 653.96Z" fill="white"/>
<path d="M973.944 665.473C967.032 665.473 960.762 664.066 955.136 661.252C949.51 658.438 945.032 654.344 941.71 648.972C938.38 643.6 936.719 637.077 936.719 629.53C936.719 621.983 938.38 615.588 941.71 610.342C945.032 604.97 949.38 600.877 954.623 598.063C959.997 595.121 965.623 593.714 971.77 593.714C978.544 593.714 984.171 595.121 988.909 597.807C993.64 600.622 997.092 604.331 999.649 609.191C1002.08 614.052 1003.36 619.68 1003.36 626.076C1003.36 627.611 1003.36 629.018 1003.23 630.297C1003.23 631.576 1002.98 632.727 1002.85 633.623H950.658C951.431 640.786 954.11 646.031 958.719 649.484C963.327 652.937 969.083 654.729 975.735 654.729C979.57 654.729 983.023 654.217 986.222 653.065C989.414 652.042 992.492 650.507 995.561 648.589L1000.42 657.415C996.962 659.717 992.997 661.636 988.396 663.17C983.918 664.706 978.927 665.473 973.684 665.473H973.944ZM972.275 604.459C967.162 604.459 962.553 606.122 958.588 609.32C954.623 612.517 952.067 617.25 951.041 623.262H990.953C990.44 616.994 988.649 612.261 985.327 609.191C981.997 606.122 977.649 604.459 972.405 604.459H972.275Z" fill="white"/>
<path d="M1016.26 663.82V595.258H1027.26L1028.42 604.212H1028.67C1030.21 601.142 1032.25 598.584 1034.69 596.537C1037.11 594.491 1040.18 593.468 1044.15 593.468C1050.8 593.468 1055.03 597.433 1056.82 605.235C1058.73 601.654 1060.78 598.84 1063.21 596.665C1065.64 594.491 1068.71 593.468 1072.68 593.468C1077.54 593.468 1081.24 595.258 1083.93 598.968C1086.62 602.677 1087.9 607.921 1087.9 614.829V663.691H1074.34V615.852C1074.34 608.817 1072.29 605.363 1068.07 605.363C1066.03 605.363 1064.23 606.131 1062.83 607.794C1061.42 609.328 1059.89 611.759 1058.22 614.957V663.82H1046.2V615.981C1046.2 608.945 1044.15 605.491 1040.05 605.491C1038.01 605.491 1036.22 606.259 1034.69 607.922C1033.15 609.456 1031.62 611.887 1030.08 615.085V663.948H1016.52L1016.26 663.82Z" fill="white"/>
<path d="M1109.26 692.59C1105.81 692.59 1102.61 692.079 1099.93 691.183L1102.74 680.439C1103.63 680.695 1104.53 680.951 1105.55 681.078C1106.58 681.206 1107.59 681.334 1108.62 681.334C1113.23 681.334 1116.93 680.055 1119.75 677.497C1122.57 674.938 1124.74 671.869 1126.27 668.159L1128.06 663.426L1096.86 595.249H1110.79L1126.27 631.064C1127.55 634.135 1128.83 637.461 1130.24 640.914C1131.52 644.368 1132.92 647.821 1134.33 651.147H1134.85C1135.99 647.821 1137.15 644.495 1138.3 641.042C1139.45 637.588 1140.72 634.262 1141.75 631.064L1155.31 595.249H1168.49L1139.19 668.159C1136.51 675.451 1132.79 681.334 1128.19 685.811C1123.59 690.289 1117.32 692.59 1109.26 692.59Z" fill="white"/>
</svg>
